# Blender v2.91.0 OBJ File: ''
# www.blender.org
mtllib tree.mtl
o Stump_Mesh
v 0.083679 0.302833 -0.273236
v -0.235063 0.342552 -0.168869
v -0.235063 0.342552 0.168869
v 0.083679 0.302833 0.273235
v 0.280673 0.278285 -0.000000
v 0.077797 0.303566 -0.246833
v -0.210145 0.339447 -0.152551
v -0.210146 0.339447 0.152551
v 0.077797 0.303566 0.246833
v 0.255755 0.281390 -0.000000
v 0.077797 0.284111 -0.246833
v -0.210145 0.319992 -0.152551
v -0.001788 0.294028 -0.000000
v -0.210146 0.319992 0.152551
v 0.077797 0.284111 0.246833
v 0.255755 0.261935 -0.000000
v 0.091477 -0.000551 -0.305870
v -0.268094 -0.000551 -0.189038
v -0.268094 -0.000551 0.189037
v 0.091477 -0.000551 0.305869
v 0.313704 -0.000551 -0.000000
v 0.083679 0.302833 -0.273236
v -0.235063 0.342552 -0.168869
v -0.235063 0.342552 0.168869
v 0.083679 0.302833 0.273236
v 0.280673 0.278285 -0.000000
vt 0.844510 0.654057
vt 0.722706 0.614174
vt 0.810844 0.549643
vt 0.722706 0.485112
vt 0.844510 0.445229
vt 0.919789 0.549643
vt 0.849250 0.674069
vt 0.704911 0.626595
vt 0.716162 0.619257
vt 0.846521 0.662014
vt 0.716167 0.481179
vt 0.704904 0.473842
vt 0.849250 0.426367
vt 0.846521 0.438422
vt 0.938791 0.550218
vt 0.927169 0.550218
vt 0.720777 0.616312
vt 0.845329 0.656775
vt 0.720780 0.484124
vt 0.845329 0.443661
vt 0.921839 0.550218
vt 0.219559 0.010676
vt 0.052394 0.186678
vt 0.001514 0.045916
vt 0.226193 0.167976
vt 0.415872 0.034553
vt 0.408373 0.175571
vt 0.583357 0.176040
vt 0.575499 0.034600
vt 0.777389 0.014693
vt 0.765586 0.170522
vt 0.935595 0.190659
vt 0.995816 0.056244
vn 0.1237 0.9923 0.0000
vn 0.3112 -0.0000 0.9504
vn 1.0000 0.0000 0.0000
vn 0.3112 0.0000 -0.9504
vn -0.8112 0.0000 -0.5848
vn -0.8112 -0.0000 0.5848
vn -0.3041 0.0893 -0.9485
vn -0.9954 0.0958 0.0000
vn -0.3041 0.0894 0.9484
vn -0.3041 0.0893 0.9485
vn 0.8086 0.0893 0.5816
vn 0.8086 0.0893 -0.5816
vn 0.8086 0.0894 -0.5815
usemtl lambert2
s 1
f 11/1/1 12/2/1 13/3/1
f 12/2/1 14/4/1 13/3/1
f 14/4/1 15/5/1 13/3/1
f 15/5/1 16/6/1 13/3/1
f 16/6/1 11/1/1 13/3/1
f 1/7/1 2/8/1 7/9/1
f 1/7/1 7/9/1 6/10/1
f 8/11/1 2/8/1 3/12/1
f 2/8/1 8/11/1 7/9/1
f 8/11/1 4/13/1 9/14/1
f 4/13/1 8/11/1 3/12/1
f 5/15/1 9/14/1 4/13/1
f 9/14/1 5/15/1 10/16/1
f 6/10/1 5/15/1 1/7/1
f 5/15/1 6/10/1 10/16/1
f 12/17/2 11/18/2 6/10/2
f 6/10/2 7/9/2 12/17/2
f 14/19/3 7/9/3 8/11/3
f 7/9/3 14/19/3 12/17/3
f 14/19/4 9/14/4 15/20/4
f 9/14/4 14/19/4 8/11/4
f 15/20/5 10/16/5 16/21/5
f 10/16/5 15/20/5 9/14/5
f 11/18/6 16/21/6 10/16/6
f 10/16/6 6/10/6 11/18/6
f 18/22/7 22/23/7 17/24/7
f 22/23/7 18/22/7 23/25/7
f 19/26/8 23/25/8 18/22/8
f 23/25/8 19/26/8 24/27/8
f 25/28/9 24/27/10 19/26/9
f 25/28/9 19/26/9 20/29/10
f 25/28/11 21/30/11 26/31/11
f 21/30/11 25/28/11 20/29/11
f 26/31/12 21/30/12 22/32/13
f 21/30/12 17/33/12 22/32/13
o Tree_Mesh.003
v -0.205348 0.781077 -0.148263
v 0.076664 0.781077 -0.239894
v -0.205348 0.781077 0.148262
v 0.076664 0.781077 0.239894
v 0.250957 0.781077 -0.000000
v 0.083679 0.302833 -0.273236
v -0.235063 0.342552 -0.168869
v -0.235063 0.342552 0.168869
v 0.083679 0.302833 0.273235
v 0.280673 0.278285 -0.000000
v -0.191548 1.406363 -0.140372
v 0.073407 1.406217 -0.227127
v -0.191548 1.406363 0.140372
v 0.073407 1.406217 0.227127
v 0.237157 1.406126 0.000000
v 0.073204 0.303763 -0.231677
v -0.197002 0.337887 -0.143184
v 0.240200 0.282674 -0.000000
v 0.073204 0.303763 0.231676
v -0.197002 0.337886 0.143184
v 0.075637 0.323034 -0.231677
v -0.194568 0.357157 -0.143184
v 0.242634 0.301944 -0.000000
v 0.075637 0.323034 0.231676
v -0.194568 0.357157 0.143184
v -0.478432 2.121171 -0.478431
v -0.478432 2.121171 0.478432
v 0.478432 2.121171 0.478432
v 0.478432 2.121171 -0.478431
v 0.000000 3.282896 0.000000
v 0.000000 2.151607 -0.434792
v 0.434792 2.151607 0.000000
v -0.000000 2.151607 0.434793
v -0.434792 2.151607 0.000000
v -0.296688 2.562479 0.000000
v -0.239216 2.702033 0.239216
v -0.239216 2.702033 -0.239216
v -0.000000 2.562479 0.296689
v 0.239216 2.702033 0.239216
v 0.296688 2.562479 0.000000
v 0.239216 2.702033 -0.239216
v 0.000000 2.562479 -0.296688
v -0.000000 2.151607 0.000000
v -0.586157 1.609482 -0.586157
v -0.586157 1.609482 0.586157
v 0.586157 1.609482 0.586157
v 0.586157 1.609482 -0.586157
v -0.000000 3.032785 0.000000
v 0.000000 1.646772 -0.532692
v 0.532692 1.646772 0.000000
v -0.000000 1.646772 0.532692
v -0.532692 1.646772 -0.000000
v -0.363492 2.150157 0.000000
v -0.293079 2.321134 0.293079
v -0.293079 2.321134 -0.293078
v -0.000000 2.150157 0.363492
v 0.293079 2.321134 0.293079
v 0.363492 2.150157 0.000000
v 0.293079 2.321134 -0.293078
v 0.000000 2.150157 -0.363491
v 0.000000 1.646772 0.000000
v -0.739529 0.883315 -0.739529
v -0.739529 0.883315 0.739529
v 0.739529 0.883315 0.739529
v 0.739529 0.883315 -0.739529
v -0.000000 2.679034 0.000000
v 0.000000 0.930362 -0.672075
v 0.672074 0.930362 0.000000
v 0.000000 0.930362 0.672074
v -0.672074 0.930362 -0.000000
v -0.458602 1.565461 0.000000
v -0.369765 1.781175 0.369765
v -0.369765 1.781175 -0.369765
v 0.000000 1.565461 0.458602
v 0.369765 1.781175 0.369765
v 0.458602 1.565461 0.000000
v 0.369765 1.781175 -0.369764
v 0.000000 1.565461 -0.458602
v -0.000000 1.017907 -0.000000
v -0.000000 1.017907 0.008951
v 0.008951 1.017907 -0.000000
v -0.001858 1.017907 -0.000000
v -0.000000 1.017907 0.002420
v 0.003269 1.017907 0.005681
vt 0.226193 0.167976
vt 0.064569 0.303867
vt 0.052394 0.186678
vt 0.227980 0.305178
vt 0.405794 0.310282
vt 0.408373 0.175571
vt 0.585154 0.311612
vt 0.583357 0.176040
vt 0.765586 0.170522
vt 0.763355 0.305364
vt 0.935595 0.190659
vt 0.921752 0.299263
vt 0.220372 0.444219
vt 0.052258 0.411801
vt 0.402679 0.451064
vt 0.586838 0.434507
vt 0.772099 0.415153
vt 0.942075 0.401264
vt 0.722910 0.613791
vt 0.844640 0.653842
vt 0.722910 0.485571
vt 0.918470 0.549875
vt 0.844855 0.445949
vt 0.845358 0.658143
vt 0.712131 0.619779
vt 0.718723 0.617438
vt 0.846802 0.663548
vt 0.924829 0.550166
vt 0.931029 0.549975
vt 0.845052 0.441988
vt 0.845715 0.437774
vt 0.712139 0.480160
vt 0.718387 0.483275
vt 0.704912 0.626051
vt 0.848978 0.673887
vt 0.937640 0.549969
vt 0.848455 0.426984
vt 0.705857 0.472512
vt 0.247824 0.751695
vt 0.167778 0.831742
vt 0.087732 0.751695
vt 0.247825 0.911788
vt 0.087732 0.911788
vt 0.167778 0.732464
vt 0.167778 0.931019
vt 0.267056 0.831742
vt 0.068501 0.831742
vt 0.007686 0.991834
vt 0.007686 0.671649
vt 0.022288 0.831741
vt 0.327871 0.991834
vt 0.167778 0.977232
vt 0.327871 0.671649
vt 0.313268 0.831742
vt 0.167778 0.686252
vt 0.167778 0.831742
vt 0.577757 0.749521
vt 0.496508 0.830770
vt 0.415259 0.749521
vt 0.577757 0.912019
vt 0.415259 0.912019
vt 0.496508 0.730001
vt 0.496508 0.931540
vt 0.597278 0.830770
vt 0.395739 0.830770
vt 0.334010 0.668272
vt 0.334010 0.993269
vt 0.659007 0.668272
vt 0.496508 0.683094
vt 0.644184 0.830770
vt 0.659007 0.993269
vt 0.496508 0.978447
vt 0.348832 0.830770
vt 0.496508 0.830770
vt 0.908855 0.750060
vt 0.827886 0.831030
vt 0.746916 0.750060
vt 0.908855 0.911999
vt 0.746915 0.911999
vt 0.827886 0.730606
vt 0.827886 0.931453
vt 0.928309 0.831030
vt 0.727462 0.831029
vt 0.665946 0.992969
vt 0.665946 0.669090
vt 0.989825 0.669090
vt 0.827885 0.683861
vt 0.975054 0.831030
vt 0.989825 0.992969
vt 0.827886 0.978198
vt 0.680717 0.831030
vt 0.827885 0.831029
vt 0.827885 0.830623
vt 0.828415 0.831029
vt 0.827885 0.832990
vt 0.829129 0.831745
vt 0.829845 0.831029
vn -0.3057 0.0635 -0.9500
vn -0.3081 0.0389 -0.9505
vn -0.3058 0.0635 -0.9500
vn -0.3081 0.0390 -0.9505
vn -0.9991 0.0423 -0.0000
vn -0.9977 0.0676 -0.0000
vn -0.3081 0.0388 0.9505
vn -0.3081 0.0390 0.9505
vn -0.3057 0.0635 0.9500
vn 0.8103 0.0502 0.5839
vn 0.8102 0.0326 0.5852
vn 0.8102 0.0327 0.5852
vn 0.8104 0.0501 -0.5838
vn 0.8102 0.0327 -0.5852
vn 0.8103 0.0502 -0.5839
vn -0.3101 0.0183 -0.9505
vn -0.3100 0.0183 -0.9506
vn -0.9998 0.0221 -0.0000
vn -0.3100 0.0183 0.9506
vn -0.3082 0.0388 0.9505
vn 0.8099 0.0170 0.5863
vn 0.8100 0.0171 0.5862
vn 0.8100 0.0170 0.5862
vn 0.8099 0.0170 -0.5863
vn 0.8100 0.0171 -0.5862
vn -0.1253 -0.9921 -0.0000
vn -0.1256 -0.9921 -0.0036
vn -0.1240 -0.9923 -0.0028
vn -0.1241 -0.9923 -0.0027
vn -0.1115 -0.9937 -0.0095
vn -0.1114 -0.9937 -0.0095
vn -0.1115 -0.9937 0.0095
vn -0.1114 -0.9937 0.0095
vn -0.1247 -0.9922 0.0031
vn -0.1256 -0.9921 0.0036
vn -0.1233 -0.9924 0.0022
vn 0.3066 -0.0387 0.9511
vn -0.8026 0.1014 0.5878
vn -0.8026 0.1014 -0.5878
vn 0.3066 -0.0387 -0.9511
vn 0.9921 -0.1253 -0.0000
vn -0.9247 0.3808 0.0000
vn 0.0000 0.3808 0.9247
vn 0.9247 0.3808 0.0000
vn 0.0000 0.3808 -0.9247
vn -0.0660 0.3179 -0.9458
vn 0.0660 0.3179 -0.9458
vn 0.9458 0.3179 -0.0660
vn 0.9458 0.3179 0.0660
vn 0.0660 0.3179 0.9458
vn -0.0660 0.3179 0.9458
vn -0.9458 0.3179 0.0660
vn -0.9458 0.3179 -0.0660
vn 0.0635 -0.9980 0.0000
vn 0.0000 -0.9980 -0.0635
vn -0.0000 -0.9980 0.0635
vn -0.0635 -0.9980 0.0000
vn 0.0511 -0.9903 0.1291
vn 0.0512 -0.9903 0.1291
vn 0.0000 -1.0000 0.0000
vn -0.0505 -0.9903 0.1297
vn -0.0508 -0.9903 0.1297
vn -0.0505 -0.9903 0.1292
vn -0.1307 -0.9901 0.0511
vn -0.1300 -0.9902 -0.0515
vn -0.1300 -0.9902 -0.0517
vn -0.1300 -0.9902 -0.0518
vn 0.0511 -0.9901 -0.1307
vn -0.0516 -0.9901 -0.1303
vn -0.0513 -0.9901 -0.1303
vn -0.0515 -0.9901 -0.1303
vn 0.1297 -0.9902 -0.0509
vn 0.1297 -0.9902 -0.0510
vn 0.1297 -0.9903 -0.0509
vn 0.1297 -0.9902 -0.0512
vn 0.1294 -0.9903 0.0512
usemtl lambert2
s 1
f 33/34/14 28/35/15 32/36/16
f 28/35/15 33/34/14 27/37/17
f 29/38/18 33/34/19 34/39/19
f 33/34/19 29/38/18 27/37/18
f 30/40/20 29/38/21 34/39/22
f 30/40/20 34/39/22 35/41/22
f 36/42/23 31/43/24 35/41/23
f 30/40/25 35/41/23 31/43/24
f 32/44/26 31/43/27 36/42/28
f 31/43/27 32/44/26 28/45/27
f 27/37/17 37/46/29 28/35/15
f 28/35/15 37/46/29 38/47/30
f 39/48/31 27/37/18 29/38/18
f 27/37/18 39/48/31 37/46/31
f 39/48/32 30/40/33 40/49/32
f 30/40/20 39/48/32 29/38/21
f 31/43/24 40/49/34 30/40/25
f 40/49/35 31/43/24 41/50/36
f 28/45/27 38/51/37 31/43/27
f 41/50/38 31/43/27 38/51/37
f 48/52/39 47/53/39 51/54/39
f 47/53/39 49/55/39 51/54/39
f 49/55/39 50/56/39 51/54/39
f 32/57/40 43/58/41 33/59/42
f 43/58/41 32/57/40 42/60/40
f 36/61/43 42/60/44 32/57/43
f 42/60/44 36/61/43 44/62/43
f 36/61/45 35/63/45 45/64/46
f 36/61/45 45/64/46 44/62/46
f 46/65/47 35/63/48 34/66/49
f 35/63/48 46/65/47 45/64/48
f 43/58/41 46/65/47 34/66/49
f 34/66/49 33/59/42 43/58/41
f 48/67/50 42/60/50 47/68/50
f 42/60/50 48/67/50 43/58/50
f 49/69/51 42/60/51 44/62/51
f 42/60/51 49/69/51 47/68/51
f 49/69/52 45/64/52 50/70/52
f 45/64/52 49/69/52 44/62/52
f 46/65/53 50/70/53 45/64/53
f 50/70/53 46/65/53 51/71/53
f 48/67/54 51/71/54 46/65/54
f 46/65/54 43/58/54 48/67/54
f 62/72/55 56/73/55 63/74/55
f 65/75/56 56/73/56 62/72/56
f 56/73/57 65/75/57 67/76/57
f 56/73/58 67/76/58 63/74/58
f 62/72/55 63/74/55 61/77/55
f 67/76/57 65/75/57 66/78/57
f 62/72/56 64/79/56 65/75/56
f 63/74/58 67/76/58 68/80/58
f 55/81/58 68/80/58 67/76/58
f 66/78/57 55/81/57 67/76/57
f 52/82/55 61/77/55 63/74/55
f 68/80/58 52/82/58 63/74/58
f 68/80/59 55/81/59 57/83/59
f 52/82/60 68/80/60 57/83/60
f 54/84/57 66/78/57 65/75/57
f 64/79/56 54/84/56 65/75/56
f 66/78/61 54/84/61 58/85/61
f 55/81/62 66/78/62 58/85/62
f 61/77/55 53/86/55 62/72/55
f 64/79/63 53/86/63 59/87/63
f 53/86/56 64/79/56 62/72/56
f 54/84/64 64/79/64 59/87/64
f 61/77/65 52/82/65 60/88/65
f 53/86/66 61/77/66 60/88/66
f 69/89/67 52/82/67 57/83/67
f 69/89/68 53/86/68 60/88/68
f 69/89/69 55/81/69 58/85/69
f 69/89/70 54/84/70 59/87/70
f 55/81/70 69/89/70 57/83/70
f 52/82/69 69/89/69 60/88/69
f 53/86/67 69/89/67 59/87/67
f 54/84/68 69/89/68 58/85/68
f 80/90/55 74/91/55 81/92/55
f 83/93/56 74/91/56 80/90/56
f 74/91/57 83/93/57 85/94/57
f 74/91/58 85/94/58 81/92/58
f 80/90/55 81/92/55 79/95/55
f 85/94/57 83/93/57 84/96/57
f 82/97/56 83/93/56 80/90/56
f 81/92/58 85/94/58 86/98/58
f 70/99/55 79/95/55 81/92/55
f 86/98/58 70/99/58 81/92/58
f 73/100/58 86/98/58 85/94/58
f 84/96/57 73/100/57 85/94/57
f 79/95/55 71/101/55 80/90/55
f 79/95/65 70/99/65 78/102/65
f 82/97/63 71/101/63 77/103/63
f 71/101/56 82/97/56 80/90/56
f 72/104/57 84/96/57 83/93/57
f 84/96/61 72/104/61 76/105/61
f 86/98/59 73/100/59 75/106/59
f 71/101/66 79/95/66 78/102/66
f 82/97/56 72/104/56 83/93/56
f 72/104/64 82/97/64 77/103/64
f 73/100/62 84/96/62 76/105/62
f 70/99/60 86/98/60 75/106/60
f 70/99/69 87/107/69 78/102/69
f 87/107/68 71/101/68 78/102/68
f 73/100/70 87/107/70 75/106/70
f 87/107/70 72/104/70 77/103/70
f 87/107/67 70/99/67 75/106/67
f 72/104/68 87/107/68 76/105/68
f 87/107/69 73/100/69 76/105/69
f 71/101/67 87/107/67 77/103/67
f 98/108/55 92/109/55 99/110/55
f 101/111/56 92/109/56 98/108/56
f 92/109/57 101/111/57 103/112/57
f 92/109/58 103/112/58 99/110/58
f 98/108/55 99/110/55 97/113/55
f 103/112/57 101/111/57 102/114/57
f 98/108/56 100/115/56 101/111/56
f 99/110/58 103/112/58 104/116/58
f 91/117/58 104/116/58 103/112/58
f 102/114/57 91/117/57 103/112/57
f 88/118/55 97/113/55 99/110/55
f 104/116/58 88/118/58 99/110/58
f 97/113/55 89/119/55 98/108/55
f 97/113/65 88/118/65 96/120/65
f 100/115/63 89/119/63 95/121/63
f 89/119/56 100/115/56 98/108/56
f 90/122/57 102/114/57 101/111/57
f 102/114/61 90/122/61 94/123/61
f 104/116/59 91/117/59 93/124/59
f 89/119/66 97/113/66 96/120/66
f 100/115/56 90/122/56 101/111/56
f 90/122/64 100/115/64 95/121/64
f 91/117/62 102/114/62 94/123/62
f 88/118/60 104/116/60 93/124/60
f 93/124/71 105/125/71 108/126/71
f 108/126/71 88/118/72 93/124/71
f 109/127/73 108/126/73 105/125/73
f 105/125/74 93/124/75 107/128/76
f 107/128/76 93/124/75 91/117/74
f 110/129/73 105/125/73 107/128/73
f 105/125/73 110/129/73 109/127/73
f 107/128/77 91/117/77 94/123/77
f 94/123/78 110/129/79 107/128/79
f 110/129/79 94/123/78 90/122/80
f 89/119/81 106/130/81 95/121/81
f 90/122/82 95/121/83 110/129/84
f 110/129/84 95/121/83 106/130/84
f 109/127/73 110/129/73 106/130/73
f 106/130/85 96/120/86 108/126/87
f 96/120/86 106/130/85 89/119/88
f 106/130/85 108/126/87 109/127/87
f 88/118/89 108/126/89 96/120/89
